<?xml version="1.0" standalone="no"?>
<!DOCTYPE svg PUBLIC "-//W3C//DTD SVG 20010904//EN"
 "http://www.w3.org/TR/2001/REC-SVG-20010904/DTD/svg10.dtd">
<svg version="1.0" xmlns="http://www.w3.org/2000/svg"
 width="317.000000pt" height="327.000000pt" viewBox="0 0 317.000000 327.000000"
 preserveAspectRatio="xMidYMid meet">

<g transform="translate(0.000000,327.000000) scale(0.100000,-0.100000)"
fill="#000000" stroke="none">
<path d="M1631 2529 c-11 -12 -19 -24 -17 -26 7 -7 35 9 40 24 10 25 0 26 -23
2z"/>
<path d="M1530 2521 c0 -9 33 -41 43 -41 4 0 2 9 -5 20 -13 21 -38 35 -38 21z"/>
<path d="M1714 2515 c-15 -11 -16 -14 -3 -15 8 0 24 7 35 15 15 11 16 14 3 15
-8 0 -24 -7 -35 -15z"/>
<path d="M1416 2477 c-5 -15 -6 -31 -2 -34 11 -11 18 5 14 34 l-4 28 -8 -28z"/>
<path d="M1820 2476 c0 -14 5 -28 10 -31 6 -4 10 7 10 24 0 17 -4 31 -10 31
-5 0 -10 -11 -10 -24z"/>
<path d="M1726 2465 c-9 -14 -13 -25 -8 -25 10 0 42 33 42 43 0 15 -19 5 -34
-18z"/>
<path d="M1588 2463 c-9 -10 -28 -43 -43 -73 -15 -30 -33 -58 -39 -62 -16 -11
-136 -10 -136 1 0 4 10 21 22 36 l21 28 -21 -12 c-12 -6 -29 -25 -37 -41 -11
-21 -23 -30 -41 -30 -14 0 -35 -5 -47 -11 -12 -7 -35 -12 -51 -11 -21 1 -26
-2 -16 -8 11 -7 9 -16 -13 -47 -34 -50 -48 -120 -32 -166 l12 -34 -42 28 c-23
15 -47 38 -53 51 -8 17 -11 19 -11 6 -2 -31 22 -68 55 -87 18 -11 40 -35 48
-54 7 -19 32 -61 54 -93 22 -32 38 -61 35 -64 -3 -3 -10 4 -17 15 -6 10 -31
41 -56 67 -36 39 -56 52 -100 63 -65 17 -75 13 -26 -10 40 -19 38 -40 -3 -31
-21 5 -23 4 -8 -4 9 -6 31 -10 48 -8 24 2 36 -3 50 -22 26 -35 51 -162 39
-195 -14 -38 -12 -71 6 -85 28 -24 34 -45 19 -73 -13 -25 -13 -26 5 -17 26 14
33 44 20 86 -7 19 -9 38 -5 42 9 10 28 -25 42 -78 10 -38 10 -49 -3 -68 -15
-22 -15 -23 5 -12 19 10 21 8 21 -15 0 -15 4 -24 10 -20 6 3 10 30 11 58 0 45
2 48 10 27 6 -13 15 -27 21 -31 7 -5 4 -18 -11 -42 -31 -51 -28 -73 6 -41 l27
25 21 -36 c31 -51 33 -50 22 4 -6 26 -7 56 -3 66 6 17 8 16 32 -6 19 -18 23
-29 19 -54 -6 -28 -5 -29 9 -11 15 18 16 17 43 -14 15 -18 33 -42 40 -54 12
-20 12 -20 12 -1 1 20 -6 36 -46 99 -35 57 -9 42 78 -44 45 -44 84 -78 87 -75
3 3 -2 13 -10 22 -28 33 -30 43 -9 43 12 0 30 -9 41 -20 11 -11 25 -20 32 -20
15 0 -22 40 -47 51 -40 16 150 10 198 -7 26 -9 52 -13 59 -11 8 3 6 6 -5 6
-10 1 -35 10 -57 21 -28 14 -59 20 -107 20 -37 0 -79 4 -93 7 -23 7 -22 8 15
15 27 5 17 6 -31 3 -68 -3 -72 -2 -91 23 -11 15 -66 51 -122 80 -55 29 -101
55 -101 57 0 2 18 -2 40 -10 38 -13 56 -5 26 12 -8 4 -53 43 -100 87 -88 80
-117 122 -47 67 l39 -31 -15 47 c-17 55 -12 141 8 154 10 6 10 9 2 9 -20 0
-15 35 7 55 15 13 29 16 62 12 42 -6 42 -6 14 7 l-29 13 24 17 c30 21 50 20
151 -4 87 -21 143 -26 134 -12 -3 5 20 15 52 22 31 7 51 15 44 18 -7 2 -33 -1
-57 -7 -48 -12 -138 -15 -148 -5 -3 4 4 15 16 25 27 23 20 24 -20 4 -25 -13
-40 -13 -82 -4 -55 11 -60 21 -34 59 l17 25 -22 -19 c-12 -10 -24 -27 -27 -37
-3 -10 -30 -32 -60 -49 -30 -17 -64 -43 -75 -58 -24 -30 -33 -23 -51 43 -11
40 -8 129 5 142 4 4 37 9 74 11 37 2 72 9 77 15 7 7 6 8 -2 3 -6 -3 -37 -3
-68 0 l-56 7 27 18 c58 38 287 55 504 37 47 -4 72 -5 55 -2 -114 16 -175 28
-175 33 0 4 20 13 45 20 64 19 65 31 2 14 -29 -7 -78 -16 -111 -20 -57 -6 -58
-6 -47 15 17 31 63 52 118 53 l48 1 -43 10 c-29 6 -53 6 -73 -1 -28 -10 -30
-9 -23 12 3 12 13 30 22 40 8 9 13 17 10 17 -3 0 -12 -8 -20 -17z"/>
<path d="M1647 2456 c-10 -14 -13 -26 -8 -26 13 0 33 28 29 41 -2 6 -12 0 -21
-15z"/>
<path d="M1894 2456 c-16 -14 -24 -26 -18 -26 17 0 60 37 53 45 -4 3 -20 -5
-35 -19z"/>
<path d="M1484 2445 c-14 -11 -15 -14 -4 -14 8 0 24 6 34 14 15 11 16 15 5 15
-8 0 -24 -7 -35 -15z"/>
<path d="M1450 2390 c0 -5 7 -10 15 -10 8 0 18 0 22 -1 4 0 9 4 11 10 2 6 -8
11 -22 11 -14 0 -26 -4 -26 -10z"/>
<path d="M1855 2390 c-4 -6 9 -10 32 -10 28 0 34 3 23 10 -20 13 -47 13 -55 0z"/>
<path d="M1630 2380 c0 -5 7 -6 17 -3 10 4 14 2 9 -5 -4 -7 1 -10 13 -9 15 1
17 4 9 14 -12 15 -48 18 -48 3z"/>
<path d="M2023 2373 c-7 -2 -13 -14 -13 -25 0 -20 1 -21 20 -3 30 27 26 42 -7
28z"/>
<path d="M1206 2354 c-9 -23 -7 -44 3 -44 5 0 11 14 13 30 5 32 -6 41 -16 14z"/>
<path d="M2074 2305 c11 -8 29 -15 39 -15 16 0 17 3 7 15 -7 8 -24 15 -39 15
-25 -1 -25 -1 -7 -15z"/>
<path d="M2010 2292 c0 -10 41 -45 46 -39 8 8 -8 37 -17 31 -5 -3 -9 0 -9 5 0
6 -4 11 -10 11 -5 0 -10 -3 -10 -8z"/>
<path d="M1123 2264 c-19 -18 -22 -24 -10 -20 10 3 22 6 27 6 4 0 10 9 13 20
7 26 4 25 -30 -6z"/>
<path d="M1511 2269 c-13 -5 -21 -12 -18 -15 9 -9 57 5 57 16 0 12 -7 12 -39
-1z"/>
<path d="M1386 2255 c-3 -9 0 -15 8 -15 7 0 19 7 26 15 10 12 9 15 -8 15 -11
0 -22 -7 -26 -15z"/>
<path d="M1489 2211 c27 -25 66 -31 41 -7 -8 8 -26 17 -40 20 l-25 7 24 -20z"/>
<path d="M1330 2190 c0 -12 40 -33 48 -25 4 4 -2 13 -12 21 -23 16 -36 18 -36
4z"/>
<path d="M1570 2176 c0 -14 5 -28 10 -31 6 -3 10 5 10 19 0 14 -4 28 -10 31
-6 3 -10 -5 -10 -19z"/>
<path d="M1658 2179 c-28 -16 -21 -30 7 -17 14 6 25 15 25 20 0 11 -11 10 -32
-3z"/>
<path d="M1097 2173 c-10 -10 -8 -55 2 -49 5 3 9 17 9 31 0 27 -1 28 -11 18z"/>
<path d="M1481 2161 c-19 -12 4 -24 30 -16 17 6 19 9 8 16 -17 11 -21 11 -38
0z"/>
<path d="M1851 2128 l-11 -33 20 24 c21 25 26 41 11 41 -5 0 -14 -15 -20 -32z"/>
<path d="M1632 2111 c-10 -6 -8 -10 8 -14 26 -7 52 1 44 14 -7 11 -35 11 -52
0z"/>
<path d="M1887 2088 c-7 -4 2 -8 20 -8 17 0 34 4 37 9 7 10 -41 9 -57 -1z"/>
<path d="M1788 2083 c7 -3 16 -2 19 1 4 3 -2 6 -13 5 -11 0 -14 -3 -6 -6z"/>
<path d="M1770 2049 c0 -5 -4 -8 -9 -4 -5 3 -12 1 -16 -5 -7 -11 15 -13 39 -4
20 8 21 24 1 24 -8 0 -15 -5 -15 -11z"/>
<path d="M1860 2051 c0 -10 24 -21 48 -21 13 0 12 3 -4 15 -21 16 -44 19 -44
6z"/>
<path d="M1020 2038 c0 -8 2 -9 37 -13 13 -1 20 2 16 10 -5 13 -53 15 -53 3z"/>
<path d="M1440 2040 c-8 -5 -11 -12 -8 -16 10 -9 58 4 58 16 0 13 -30 13 -50
0z"/>
<path d="M1707 1991 c5 -20 33 -38 33 -21 0 8 -28 40 -35 40 -2 0 -1 -9 2 -19z"/>
<path d="M1502 1988 c5 -15 48 -24 48 -10 0 10 -23 22 -42 22 -5 0 -8 -6 -6
-12z"/>
<path d="M1770 1990 c0 -11 42 -31 49 -24 2 2 -2 10 -9 19 -14 17 -40 20 -40
5z"/>
<path d="M1436 1952 c-3 -6 -1 -14 5 -17 14 -9 20 -2 10 14 -6 8 -11 9 -15 3z"/>
<path d="M1340 1920 c11 -21 40 -28 40 -9 0 5 -4 7 -10 4 -5 -3 -10 -2 -10 3
0 6 -7 12 -15 16 -13 4 -14 2 -5 -14z"/>
<path d="M1673 1904 c-26 -13 -32 -23 -35 -52 -3 -39 22 -96 46 -105 26 -10
56 5 76 38 33 53 25 97 -21 120 -34 18 -27 18 -66 -1z"/>
<path d="M1845 1889 c-58 -17 -71 -64 -31 -113 38 -46 80 -26 101 51 4 14 -2
29 -17 46 -20 21 -28 24 -53 16z"/>
<path d="M1020 1875 c-19 -23 -8 -26 20 -5 19 15 21 20 9 20 -9 0 -22 -7 -29
-15z"/>
<path d="M1520 1870 c-11 -11 -20 -31 -20 -44 0 -13 -3 -31 -6 -39 -9 -24 57
-42 99 -26 33 12 34 13 26 53 -7 40 -38 76 -65 76 -8 0 -23 -9 -34 -20z"/>
<path d="M1503 1728 c-6 -7 -13 -34 -16 -60 l-7 -48 45 0 c43 0 45 1 45 29 0
16 3 36 6 45 4 11 0 16 -12 16 -9 0 -25 7 -34 15 -14 12 -19 13 -27 3z"/>
<path d="M1826 1716 c8 -11 14 -30 14 -42 0 -46 10 -54 62 -54 l50 0 -7 48
c-4 26 -11 52 -16 57 -6 6 -34 10 -64 11 -52 0 -53 0 -39 -20z"/>
<path d="M1612 1713 c-13 -11 -23 -36 -28 -65 l-6 -48 127 0 128 0 -7 48 c-9
67 -56 103 -86 67 -7 -8 -23 -15 -35 -15 -12 0 -28 7 -35 15 -16 20 -33 19
-58 -2z"/>
<path d="M603 1234 c14 -5 17 -18 17 -78 0 -43 -5 -77 -12 -84 -9 -9 -8 -12 8
-12 17 0 19 7 18 88 -1 84 -2 87 -25 89 -15 1 -17 0 -6 -3z"/>
<path d="M718 1231 c10 -6 13 -29 11 -87 -3 -68 -1 -79 14 -82 9 -2 17 1 17 7
0 6 -4 11 -10 11 -15 0 -13 147 3 153 6 3 -1 6 -18 6 -20 0 -26 -2 -17 -8z"/>
<path d="M838 1233 c16 -6 17 -144 0 -161 -9 -9 2 -12 50 -12 61 0 62 0 61 28
-1 16 -3 20 -6 10 -2 -10 -5 -18 -6 -18 -1 -1 -19 -3 -39 -6 l-38 -6 0 81 0
81 39 0 c29 0 41 -5 44 -17 4 -14 5 -12 6 5 1 21 -3 22 -61 21 -35 0 -57 -3
-50 -6z"/>
<path d="M1012 1227 c7 -8 24 -46 37 -85 13 -40 26 -72 30 -72 4 0 15 32 25
72 20 79 26 77 47 -15 7 -32 16 -60 20 -63 9 -5 54 134 47 141 -2 3 -13 -23
-23 -57 -20 -69 -21 -68 -51 37 l-17 60 -23 -70 c-13 -38 -24 -72 -24 -75 -1
-3 -12 24 -24 60 -16 45 -20 67 -12 72 6 4 -2 8 -17 8 -24 0 -26 -2 -15 -13z"/>
<path d="M1200 1236 c0 -10 28 -13 41 -5 10 6 7 9 -13 9 -16 0 -28 -2 -28 -4z"/>
<path d="M1401 1218 c1 -17 2 -19 6 -5 3 11 14 17 34 17 l29 0 0 -75 c0 -43
-4 -75 -10 -75 -5 0 -10 -4 -10 -10 0 -5 12 -10 28 -9 15 0 21 3 15 6 -9 3
-13 30 -13 84 0 77 1 79 24 79 15 0 26 -7 29 -17 4 -14 5 -12 6 5 1 21 -3 22
-69 22 -66 0 -70 -1 -69 -22z"/>
<path d="M1661 1221 c-7 -12 -19 -45 -27 -72 -8 -28 -24 -59 -35 -70 -19 -19
-19 -19 6 -19 17 0 23 4 19 14 -3 8 0 25 7 38 7 13 14 30 16 39 1 9 8 29 14
45 l11 29 19 -40 c10 -22 16 -29 13 -15 -4 14 -12 36 -19 49 l-12 25 -12 -23z"/>
<path d="M1823 1233 c14 -4 17 -16 17 -79 0 -43 -4 -74 -10 -74 -5 0 -10 -5
-10 -10 0 -7 22 -10 57 -8 49 3 58 6 61 23 2 16 1 17 -7 5 -5 -9 -26 -17 -45
-18 l-36 -3 0 80 c0 54 4 81 13 84 6 3 -4 5 -23 5 -19 0 -27 -2 -17 -5z"/>
<path d="M1998 1231 c7 -4 35 -6 62 -3 41 4 49 2 53 -14 4 -16 5 -15 6 4 1 21
-3 22 -66 22 -40 0 -63 -4 -55 -9z"/>
<path d="M2188 1234 c8 -4 12 -31 12 -84 0 -53 -4 -80 -12 -83 -7 -3 -1 -6 15
-6 15 -1 27 4 27 9 0 6 -4 10 -10 10 -6 0 -10 29 -10 66 0 44 4 63 11 59 6 -4
30 -38 55 -76 28 -44 50 -69 61 -68 11 0 13 3 6 6 -9 3 -13 30 -13 83 0 53 4
80 13 83 6 3 -1 5 -18 5 -16 0 -24 -2 -17 -5 8 -3 12 -29 12 -80 l0 -75 -52
79 c-33 49 -60 79 -73 80 -11 2 -14 0 -7 -3z"/>
<path d="M2411 1218 c1 -17 2 -19 6 -5 4 14 16 17 63 17 47 0 59 -3 63 -17 4
-14 5 -12 6 5 1 21 -3 22 -69 22 -66 0 -70 -1 -69 -22z"/>
<path d="M640 1206 c0 -12 72 -117 77 -112 3 2 -12 28 -32 58 -42 60 -45 64
-45 54z"/>
<path d="M2018 1158 c6 -72 12 -74 12 -5 0 32 -4 57 -8 57 -5 0 -7 -24 -4 -52z"/>
<path d="M916 1162 c-2 -4 -1 -14 5 -22 7 -12 9 -10 9 8 0 23 -5 28 -14 14z"/>
<path d="M2082 1150 c0 -14 2 -19 5 -12 2 6 2 18 0 25 -3 6 -5 1 -5 -13z"/>
<path d="M878 1153 c7 -3 16 -2 19 1 4 3 -2 6 -13 5 -11 0 -14 -3 -6 -6z"/>
<path d="M1711 1119 c6 -12 9 -30 6 -40 -4 -15 0 -19 19 -19 13 0 24 5 24 11
0 5 -4 8 -9 4 -5 -3 -15 11 -21 30 -6 19 -16 35 -21 35 -6 0 -5 -9 2 -21z"/>
<path d="M2110 1092 c0 -16 -8 -18 -50 -17 -28 1 -53 -2 -56 -7 -3 -4 22 -8
55 -8 58 0 61 1 61 25 0 14 -2 25 -5 25 -3 0 -5 -8 -5 -18z"/>
<path d="M2450 1070 c0 -5 11 -10 25 -10 14 0 25 5 25 10 0 6 -11 10 -25 10
-14 0 -25 -4 -25 -10z"/>
<path d="M1343 900 c0 -25 2 -35 4 -22 3 13 12 22 23 22 11 0 20 -9 23 -22 2
-13 4 -3 4 22 1 25 -1 37 -4 28 -2 -10 -13 -18 -23 -18 -10 0 -21 8 -23 18 -3
9 -5 -3 -4 -28z"/>
<path d="M1430 911 c0 -32 22 -56 44 -48 14 6 28 77 15 77 -4 0 -9 -15 -11
-32 -2 -21 -8 -33 -18 -33 -10 0 -15 10 -15 33 0 17 -3 32 -7 32 -5 0 -8 -13
-8 -29z"/>
<path d="M1531 898 c1 -39 2 -40 8 -13 l7 30 11 -30 11 -30 12 30 13 30 7 -30
c7 -28 8 -27 9 13 1 48 -10 54 -28 15 l-13 -28 -14 28 c-20 37 -24 34 -23 -15z"/>
<path d="M1652 915 c-17 -37 -15 -40 18 -40 17 0 30 0 30 1 0 12 -24 64 -29
64 -4 0 -13 -11 -19 -25z m28 -10 c0 -8 -4 -15 -10 -15 -5 0 -10 7 -10 15 0 8
5 15 10 15 6 0 10 -7 10 -15z"/>
<path d="M1730 905 c0 -19 5 -35 10 -35 6 0 10 9 10 21 0 11 5 17 10 14 14 -9
13 8 -2 23 -20 20 -28 14 -28 -23z"/>
<path d="M1782 928 c0 -7 -2 -22 -4 -32 -2 -10 3 -21 10 -23 8 -3 12 7 12 31
0 33 -15 53 -18 24z"/>
</g>
</svg>
